<?xml version="1.0" standalone="no"?>
<!DOCTYPE svg PUBLIC "-//W3C//DTD SVG 20010904//EN"
 "http://www.w3.org/TR/2001/REC-SVG-20010904/DTD/svg10.dtd">
<svg version="1.0" xmlns="http://www.w3.org/2000/svg"
 width="4368.000000pt" height="714.000000pt" viewBox="0 0 4368.000000 714.000000"
 preserveAspectRatio="xMidYMid meet">

<g transform="translate(0.000000,714.000000) scale(0.100000,-0.100000)"
fill="#000000" stroke="none">
<path d="M10660 4631 l0 -2500 37 -7 c54 -10 323 3 432 21 109 18 225 55 287
91 98 58 170 167 195 298 5 29 9 850 9 2041 0 2189 2 2099 -60 2232 -35 76
-107 155 -167 184 -38 18 -71 23 -232 30 -264 11 -375 33 -467 90 l-34 21 0
-2501z"/>
<path d="M17630 4628 l0 -2498 27 -6 c41 -11 338 4 438 21 242 42 378 122 441
260 54 118 54 105 54 1242 l0 1052 98 31 c176 54 275 71 457 77 237 8 388 -14
520 -76 143 -67 185 -148 215 -416 6 -55 13 -118 16 -140 3 -22 9 -391 13
-820 8 -852 6 -824 68 -953 40 -83 135 -174 226 -218 126 -60 238 -77 465 -72
106 3 194 7 197 9 2 3 4 583 5 1289 1 1268 1 1286 -20 1370 -66 272 -168 479
-293 598 -165 154 -426 269 -690 302 -114 15 -631 8 -792 -10 -184 -20 -371
-58 -470 -97 -11 -4 -14 94 -18 529 -3 457 -6 542 -20 596 -37 138 -104 235
-197 286 -50 27 -60 29 -252 37 -229 11 -325 27 -420 73 l-68 32 0 -2498z"/>
<path d="M25710 4632 l0 -2500 23 -6 c35 -9 214 -7 328 4 135 13 235 35 332
72 142 54 238 171 267 323 8 44 10 609 8 2095 -3 1929 -4 2038 -22 2094 -26
87 -62 152 -113 207 -76 81 -105 90 -322 100 -264 11 -375 33 -467 90 l-34 21
0 -2500z"/>
<path d="M3020 7061 l0 -58 79 -5 c285 -17 420 -315 224 -499 -65 -62 -270
-199 -297 -199 -3 0 -6 14 -6 30 0 17 -2 30 -5 30 -3 0 -60 -27 -128 -59 -67
-33 -174 -80 -236 -106 -108 -44 -114 -45 -132 -29 -40 36 -17 241 41 370 58
129 175 264 284 328 59 35 157 69 168 58 4 -4 9 -130 10 -280 l3 -273 87 52
c106 63 192 138 218 190 28 54 26 134 -3 190 -44 84 -180 151 -274 136 -31 -5
-33 -4 -33 25 0 30 0 31 -42 24 -52 -8 -150 -53 -214 -97 -174 -120 -313 -360
-331 -575 l-6 -74 -26 17 c-212 141 -459 208 -671 183 -197 -24 -331 -90 -477
-234 -50 -50 -347 -352 -660 -672 -472 -481 -571 -588 -581 -621 -16 -54 -15
-80 4 -139 14 -40 37 -69 131 -161 62 -62 118 -113 123 -113 9 0 901 590 922
609 4 3 11 105 17 226 15 309 43 455 93 471 69 22 106 -129 116 -471 l7 -220
430 -287 c237 -157 435 -287 442 -287 20 -2 385 385 434 459 185 280 151 697
-84 1013 -32 44 -55 83 -50 86 4 4 51 25 103 46 52 21 143 62 202 92 59 29
110 53 113 53 3 0 5 -934 5 -2076 l0 -2077 188 6 c450 14 648 103 734 332 l23
60 5 1085 5 1084 90 29 c217 69 447 97 646 79 261 -24 423 -92 479 -202 74
-145 100 -516 100 -1440 0 -600 2 -624 61 -747 60 -127 178 -217 344 -265 73
-21 100 -23 307 -23 124 0 229 2 232 5 3 3 6 579 6 1280 l2 1275 -35 135 c-85
326 -205 518 -408 650 -160 104 -328 166 -531 196 -94 14 -163 16 -418 11
-299 -6 -468 -20 -635 -53 -70 -14 -192 -46 -231 -61 -10 -4 -13 95 -17 534
-3 478 -5 545 -21 598 -27 91 -64 160 -114 211 -79 80 -101 86 -312 95 -255
11 -374 34 -467 89 l-33 19 0 -58z m-725 -1050 c77 -34 115 -106 102 -188 -18
-109 -141 -172 -242 -123 -64 31 -95 80 -95 148 0 135 118 216 235 163z"/>
<path d="M31350 6340 c0 -423 -4 -770 -8 -770 -5 0 -33 13 -63 29 -132 72
-285 101 -560 108 -391 10 -660 -39 -937 -172 -440 -211 -698 -528 -817 -1005
-103 -410 -78 -1043 57 -1450 182 -551 557 -828 1258 -927 182 -26 793 -26
1000 0 325 41 509 86 663 163 154 77 220 130 330 265 l37 47 -3 1993 c-3 2204
2 2052 -66 2193 -68 145 -146 180 -421 196 -239 13 -345 33 -428 81 -18 10
-35 19 -38 19 -2 0 -4 -346 -4 -770z m-370 -1451 c106 -9 226 -31 329 -59 l41
-11 -2 -877 -3 -877 -75 -17 c-107 -25 -318 -48 -440 -48 -183 0 -393 46 -540
118 -113 55 -231 176 -293 302 -65 131 -97 262 -104 425 -10 232 27 441 107
613 71 151 169 253 320 331 192 100 369 127 660 100z"/>
<path d="M27643 6911 c-122 -35 -252 -141 -307 -250 -87 -170 -77 -377 25
-530 98 -147 242 -221 430 -221 454 0 680 548 358 869 -131 132 -328 183 -506
132z"/>
<path d="M27300 3941 l0 -1810 37 -7 c53 -10 322 3 432 21 108 18 225 55 285
90 94 55 162 153 191 276 23 97 23 2633 0 2765 -19 110 -60 198 -120 263 -78
84 -107 93 -328 102 -257 12 -359 31 -454 86 l-43 24 0 -1810z"/>
<path d="M42080 5724 c-814 -55 -1241 -236 -1410 -599 -56 -120 -71 -190 -77
-357 -9 -253 25 -428 117 -607 91 -177 185 -267 375 -361 165 -81 309 -123
690 -200 193 -39 377 -78 410 -86 282 -71 395 -117 468 -188 85 -82 86 -168 1
-226 -105 -73 -247 -105 -533 -121 -235 -14 -429 -8 -816 25 -159 13 -334 27
-388 30 l-97 6 -11 -27 c-16 -44 -13 -279 5 -345 29 -107 93 -217 170 -294
116 -116 300 -193 548 -230 94 -14 165 -16 423 -11 175 3 373 12 455 21 562
62 920 205 1095 438 112 149 152 277 165 530 l10 177 -35 137 c-38 150 -61
196 -161 322 -86 108 -195 209 -305 282 -134 88 -389 211 -563 270 -184 62
-490 139 -696 175 -251 44 -266 51 -291 133 -25 86 57 178 199 222 169 52 634
59 1107 17 165 -14 347 -28 404 -29 126 -4 119 -15 120 177 1 154 -11 213 -71
329 -98 190 -271 300 -580 368 -80 17 -134 21 -383 23 -159 1 -315 1 -345 -1z"/>
<path d="M7720 5683 c-215 -23 -401 -116 -495 -247 -52 -73 -98 -176 -122
-273 -16 -66 -26 -353 -13 -367 3 -3 41 6 83 19 350 111 979 154 1382 95 334
-50 490 -125 532 -257 33 -106 -13 -192 -138 -256 -135 -69 -269 -85 -879
-107 -394 -14 -547 -42 -738 -139 -188 -95 -298 -203 -382 -376 -92 -188 -124
-355 -124 -650 0 -197 2 -216 27 -310 48 -177 141 -334 254 -430 69 -58 210
-142 292 -174 43 -16 122 -40 177 -52 96 -22 120 -23 709 -26 647 -4 688 -2
895 43 153 34 246 72 357 143 278 180 427 422 500 816 21 108 30 1079 13 1265
-37 401 -146 664 -369 890 -131 133 -256 207 -466 278 -216 73 -356 97 -670
112 -195 9 -746 11 -825 3z m1385 -2385 c-32 -215 -61 -265 -189 -328 -90 -44
-187 -54 -461 -47 -400 11 -556 55 -629 180 -64 109 -56 211 23 288 98 94 283
144 594 159 106 5 203 12 217 16 148 37 344 131 411 198 l44 44 3 -204 c2
-144 -2 -234 -13 -306z"/>
<path d="M13824 5679 c-363 -26 -713 -136 -959 -300 -114 -77 -259 -225 -344
-355 -143 -217 -219 -408 -260 -655 -39 -234 -42 -321 -20 -548 42 -448 106
-734 209 -946 59 -121 126 -212 239 -325 223 -222 496 -332 983 -396 165 -21
630 -30 780 -15 306 32 604 130 812 269 93 62 226 196 304 307 189 268 265
541 283 1030 14 351 -3 612 -53 810 -26 107 -101 302 -150 395 -98 186 -292
380 -501 502 -305 178 -808 264 -1323 227z m530 -893 c153 -40 236 -85 337
-186 69 -68 94 -102 127 -170 88 -180 117 -355 109 -650 -4 -151 -8 -187 -31
-263 -85 -283 -220 -417 -502 -499 -72 -21 -99 -23 -304 -23 -196 1 -239 4
-330 24 -251 54 -378 152 -475 363 -65 141 -99 383 -93 650 4 163 8 193 32
273 62 205 145 316 293 393 179 93 327 123 573 118 137 -3 182 -9 264 -30z"/>
<path d="M23081 5679 c-315 -24 -580 -96 -829 -224 -135 -69 -213 -128 -327
-246 -135 -140 -272 -361 -338 -544 -36 -101 -74 -278 -93 -435 -19 -157 -15
-290 16 -565 51 -439 139 -735 280 -939 60 -86 187 -218 278 -287 183 -138
460 -231 852 -285 157 -21 632 -30 781 -15 421 44 753 182 975 405 221 223
334 454 395 813 27 157 31 210 36 443 9 409 -15 644 -87 860 -96 286 -155 386
-329 560 -172 171 -318 266 -521 338 -297 104 -709 150 -1089 121z m489 -883
c174 -39 278 -96 388 -211 90 -94 120 -145 167 -288 48 -148 58 -240 52 -495
-4 -203 -6 -223 -32 -302 -69 -213 -153 -324 -308 -406 -164 -86 -284 -109
-539 -101 -417 12 -610 103 -737 346 -81 156 -127 432 -118 706 4 121 10 169
31 245 67 240 164 356 373 444 86 36 182 63 276 76 88 13 370 4 447 -14z"/>
<path d="M33770 5679 c-41 -6 -109 -22 -150 -35 -180 -60 -290 -153 -364 -307
-65 -133 -80 -202 -80 -384 -1 -83 1 -154 4 -157 3 -3 46 8 95 23 274 87 842
141 1180 112 508 -45 728 -147 728 -338 0 -96 -70 -174 -198 -222 -123 -46
-322 -67 -740 -76 -441 -10 -615 -40 -820 -142 -296 -147 -431 -350 -497 -743
-7 -43 -13 -164 -13 -285 0 -245 15 -324 89 -479 73 -154 158 -251 296 -338
138 -88 245 -128 425 -158 120 -20 151 -21 747 -17 l623 3 120 27 c268 59 411
130 580 289 195 182 311 456 345 813 13 141 13 963 0 1120 -33 384 -128 632
-333 867 -132 151 -287 245 -537 326 -160 52 -292 79 -455 92 -179 15 -951 21
-1045 9z m1437 -2134 c-4 -181 -10 -251 -27 -329 -25 -117 -36 -141 -88 -188
-104 -94 -208 -114 -547 -105 -371 10 -524 47 -609 147 -53 64 -78 168 -56
235 49 148 258 226 655 245 227 11 288 25 460 110 86 42 133 71 165 105 37 37
46 43 49 28 2 -10 1 -121 -2 -248z"/>
<path d="M39470 5671 c-104 -22 -185 -62 -276 -135 -142 -114 -214 -234 -324
-541 -110 -304 -508 -1337 -522 -1350 -2 -3 -66 120 -141 273 -204 417 -367
785 -491 1112 -29 76 -72 171 -96 210 -82 140 -242 279 -377 330 -172 65 -440
75 -623 24 -90 -26 -255 -76 -258 -79 -2 -2 79 -153 181 -337 220 -396 413
-764 696 -1328 271 -540 434 -889 557 -1192 l43 -107 -538 -1113 -538 -1113
23 -52 c31 -71 67 -116 139 -170 115 -88 226 -115 388 -95 177 22 324 90 442
206 l62 61 438 970 c241 534 542 1188 670 1455 128 267 267 566 308 665 281
673 572 1320 891 1979 59 120 105 220 104 221 -7 6 -226 77 -295 95 -114 31
-347 37 -463 11z"/>
<path d="M797 4528 c-219 -83 -396 -154 -395 -158 2 -4 158 -157 348 -339
l345 -331 10 54 c10 52 13 57 85 111 41 32 76 59 78 61 2 1 -6 119 -17 261
-11 142 -23 311 -27 376 -5 75 -11 117 -18 116 -6 -1 -190 -69 -409 -151z"/>
<path d="M1406 4563 c-4 -65 -16 -226 -27 -358 -10 -132 -19 -249 -19 -261 0
-14 25 -38 80 -79 68 -50 80 -63 80 -88 0 -16 4 -27 8 -25 23 9 632 642 625
649 -7 7 -683 265 -724 276 -14 4 -17 -12 -23 -114z"/>
</g>
</svg>
