<?xml version="1.0" encoding="iso-8859-1"?>
<!-- Generator: Adobe Illustrator 27.5.0, SVG Export Plug-In . SVG Version: 6.00 Build 0)  -->
<svg version="1.1" id="Capa_1" xmlns="http://www.w3.org/2000/svg" xmlns:xlink="http://www.w3.org/1999/xlink" x="0px" y="0px"
	 viewBox="0 0 512.001 512.001" style="enable-background:new 0 0 512.001 512.001;" xml:space="preserve">
<g>
	<g>
		<g>
			<g>
				<g>
					<path d="M291.922,368.026c-6.109,0.005-11.057-4.987-11.001-11.095c0.073-8.446,0.148-17.925,0.218-27.769h-54.777
						c-3.892,0-7.494-2.057-9.472-5.407c-1.979-3.352-2.039-7.499-0.159-10.906c7.391-13.397,44.638-80.69,52.111-89.859
						c8.457-10.374,17.493-8.978,20.985-7.898c7.387,2.288,12.642,9.538,13.386,18.469c0.398,4.78,0.276,41.057,0.077,73.603h5.762
						c6.075,0,11,4.925,11,11s-4.925,11-11,11h-5.91c-0.092,12.621-0.178,22.928-0.222,27.958
						C302.867,363.163,297.952,368.025,291.922,368.026z M245.037,307.163h36.247c0.154-25.825,0.246-50.811,0.16-63.506
						C273.996,255.772,259.461,281.27,245.037,307.163z"/>
				</g>
			</g>
			<g>
				<g>
					<path d="M150.015,369.338c-25.368,0-27.204-0.613-28.658-1.098c-3.705-1.235-6.47-4.027-7.587-7.66
						c-1.951-6.343,0.767-9.902,8.836-20.467c6.704-8.777,19.183-25.117,40.089-54.988c5.93-8.472,11.325-17.606,12.653-28.004
						c-1.42-26.944-39.059-30.11-44.954-3.778c-1.171,5.961-6.948,9.843-12.914,8.674c-5.961-1.171-9.844-6.953-8.674-12.914
						c11.828-52.557,87.104-45.262,88.55,8.651c-1.056,14.416-6.812,25.359-16.638,39.988
						c-17.024,24.322-28.545,39.806-35.941,49.568c12.826,0.027,30.498-0.088,47.022-0.297c6.059-0.082,11.066,4.784,11.137,10.861
						c0.076,6.074-4.786,11.061-10.861,11.137C173.515,369.244,159.957,369.338,150.015,369.338z M126.717,346.987
						C126.718,346.987,126.718,346.987,126.717,346.987C126.718,346.987,126.718,346.987,126.717,346.987z"/>
				</g>
			</g>
		</g>
	</g>
	<g>
		<g>
			<path d="M461.098,372.488c-2.917,0-5.715-1.159-7.778-3.222l-79.907-79.906c-2.062-2.063-3.222-4.861-3.222-7.778
				s1.159-5.715,3.222-7.778l33.274-33.274c-10.003-61.673-73.859-125.259-135.172-135.169l-33.273,33.272
				c-4.296,4.295-11.261,4.295-15.557,0l-79.907-79.906c-4.251-4.091-4.268-11.464,0-15.557c0,0,11.796-11.796,11.796-11.796
				c21.093-21.092,50.257-32.494,80.013-31.24c141.76,1.891,275.457,135.692,277.322,277.326
				c1.242,29.754-10.147,58.919-31.238,80.011l-11.795,11.796C466.813,371.329,464.016,372.488,461.098,372.488z M396.748,281.582
				l64.351,64.35l4.017-4.018c0,0,0,0,0,0c16.754-16.754,25.799-39.914,24.816-63.541c-1.927-46.285-17.286-114.52-79.513-176.746
				c-62.225-62.226-130.46-77.585-176.746-79.513c-25.646-1.196-50.369,9.895-67.559,28.834l64.351,64.35l29.379-29.379
				c2.268-2.268,5.412-3.423,8.61-3.19c2.237,0.17,55.372,4.733,105.751,55.112c50.379,50.379,54.943,103.515,55.112,105.752
				c0.243,3.198-0.922,6.343-3.19,8.61L396.748,281.582z"/>
		</g>
	</g>
	<path style="fill:#33CCCC;" d="M430.959,445.383l-7.417-47.751c-0.029-0.153-0.059-0.304-0.091-0.455
		c-0.435-2.27-1.628-4.379-3.329-5.941c-2.175-2.03-5.189-3.078-8.154-2.893l-48.224,3.097c-6.062,0.39-10.662,5.62-10.272,11.683
		c0.374,5.822,5.213,10.295,10.967,10.295c0.237,0,0.476-0.007,0.716-0.022l25.236-1.621
		C270.201,564.123,22.104,478.125,22.006,283.527c-0.001-71.387,36.105-136.751,96.582-174.847
		c11.984-8.182,1.029-25.911-11.726-18.615C41.143,130.91-0.542,206.001,0.005,283.53c1.771,215.3,268.898,309.84,405.918,144.003
		l3.297,21.226C412.078,463.131,432.624,459.853,430.959,445.383z"/>
</g>
<g>
</g>
<g>
</g>
<g>
</g>
<g>
</g>
<g>
</g>
<g>
</g>
<g>
</g>
<g>
</g>
<g>
</g>
<g>
</g>
<g>
</g>
<g>
</g>
<g>
</g>
<g>
</g>
<g>
</g>
</svg>
