<?xml version="1.0" encoding="UTF-8"?>
<svg id="Layer_1" data-name="Layer 1" xmlns="http://www.w3.org/2000/svg" viewBox="0 0 395.66 396">
  <defs>
    <style>
      .cls-1 {
        fill: #fff;
      }

      .cls-1, .cls-2 {
        stroke-width: 0px;
      }

      .cls-2 {
        fill: #181916;
      }
    </style>
  </defs>
  <path class="cls-2" d="m174.06,53.43l-31.59-5.61-35.27,200.35,160.49,28.28,10.63-59.86s-51.87,6.34-89.82-33.3c-37.94-39.65-38.23-86.77-14.44-129.86"/>
  <path class="cls-2" d="m280.02,207.06s-45.46-.57-68.04-45.57c-31.2-62.18,33.7-95.6,33.7-95.6l57.6,10.26-23.25,130.91"/>
  <path class="cls-1" d="m149.77,211.86l-9.03-1.59-17.08,16.9,8.35,1.48,3.29-3.51,14.16,2.52,1.76,4.41,8.67,1.54-10.12-21.75Zm-11.67,10.32l6.29-6.7,3.42,8.45-9.71-1.75Z"/>
  <polyline class="cls-1" points="164.97 214.57 195.96 220.08 195.35 223.52 183.91 221.46 181.08 237.38 173.04 235.95 175.86 220.04 164.37 218 164.97 214.57"/>
  <path class="cls-1" d="m229.79,227.83c-2.62-2.02-6.67-3.52-12.13-4.5-5.46-.97-9.78-.97-12.94.04-4.18,1.08-6.6,3.39-7.24,6.94-.6,3.46.86,6.46,4.4,9,2.62,2.02,6.66,3.51,12.13,4.48,5.48.97,9.78.96,12.94-.04,4.19-1.15,6.59-3.48,7.19-6.94.63-3.54-.82-6.54-4.36-8.99m-22.42,9.42c-1.67-1.49-2.32-3.37-1.93-5.54.38-2.18,1.63-3.68,3.72-4.53,2.08-.84,4.73-.97,7.89-.4,3.17.55,5.57,1.59,7.22,3.1,1.64,1.51,2.28,3.35,1.9,5.54-.38,2.16-1.61,3.68-3.68,4.53-2.08.85-4.69,1-7.86.43-3.17-.56-5.6-1.6-7.26-3.12Z"/>
  <polyline class="cls-1" points="238.54 247.59 241.97 228.25 249.96 229.69 247.15 245.55 266.1 248.91 265.49 252.39 238.54 247.59"/>
  <path class="cls-2" d="m392.64,232.38h0m-226.93,148.01C65.21,362.65-2.12,266.4,15.59,165.84,33.32,65.26,129.48-2.13,229.96,15.61c100.49,17.73,167.82,113.98,150.1,214.55-17.72,100.57-113.88,167.96-214.36,150.23ZM3.02,163.61c-18.93,107.52,53.04,210.4,160.46,229.36,107.43,18.96,210.21-53.09,229.15-160.59,2.04-11.58,3.03-23.11,3.03-34.49,0-94.22-67.64-177.95-163.49-194.86C124.77-15.94,21.97,56.11,3.02,163.61Z"/>
  <path class="cls-2" d="m54.14,216.81c.42,1.28.84,2.61,1.48,3.75,2.09,3.54,5.81,4.02,9.38,3.05,4.69-1.28,7.14-4.53,6.31-7.58l-1-3.65-16.17,4.42m-20.85,5.7c-.29-1.51-.51-3.01-.91-4.48-.4-1.47-.98-2.88-1.5-4.31l40.18-10.97,3.94,14.42c2.22,8.14.14,13.43-6.48,15.25-10.43,2.84-14.73-4.17-17.61-14.72l-17.63,4.81Z"/>
  <path class="cls-2" d="m68.69,252.93c2.71,5.81,6.93,7,12.32,3.83.73-.44,1.49-.94,2.47-1.8,3.86-3.39,1.13-7.07-.75-10.27l-14.03,8.24m12.25-17.77l6.55,11.17c1.45,2.45,3.8,6.22,3.94,9.1.17,3.91-1.25,6.87-4.82,8.96-5.13,3.01-10.31,1.63-14.22-2.64-3.33,5.83-6.23,11.92-9.27,17.92l-2.05,3.95c-.81-1.63-1.57-3.29-2.53-4.92-.92-1.57-2.01-3.05-3.03-4.57l7.34-12.69c.95-1.62,2.5-4.5,3.82-6.83l-.22-.35-16.81,9.87c-.66-1.37-1.27-2.77-2.04-4.08-.77-1.31-1.7-2.54-2.56-3.79l35.91-21.1Z"/>
  <path class="cls-2" d="m90.62,288.61c-5.19,5.94-8.01,14.62-1.15,20.62,7.03,6.16,16.34,1.87,22.98-5.71,5.15-5.89,8.33-15.07,1.48-21.07-6.36-5.57-14.34-4.08-23.31,6.16m-3.79,23.16c-10.09-8.86-11.7-20.75-2.62-31.14,7.96-9.1,21.03-10.66,32.4-.68,13.02,11.41,8.82,23.96,2.66,31.08-7.76,8.96-21.25,10.55-32.44.74Z"/>
  <path class="cls-2" d="m137.72,342.32c-1.34-.72-2.66-1.48-4.05-2.09-1.4-.61-2.87-1.04-4.3-1.53l14.82-34.3c-3.95-1.7-7.63-2.84-10.7-3.71.45-.74.96-1.43,1.31-2.27.34-.79.51-1.64.74-2.47l28.7,12.43c-.46.73-.95,1.43-1.29,2.21-.36.84-.53,1.7-.75,2.53-3.12-1.82-6.25-3.62-9.64-5.09l-14.83,34.29"/>
  <path class="cls-2" d="m193.21,313.41c-.27.81-.6,1.69-.73,2.52-.15.84-.12,1.77-.15,2.64-3.57-1.11-7.56-2.27-13.68-3.2l-2.19,12.89,6.23,1.05c2.69.46,5.18.64,7.45.72-.26.81-.6,1.69-.73,2.53-.15.84-.12,1.77-.15,2.62-2.16-.68-4.57-1.32-7.26-1.79l-6.22-1.06-2.59,15.21c6.12.97,10.24,1.37,13.97,1.51-.26.83-.6,1.7-.73,2.53-.15.85-.12,1.76-.15,2.62l-22.81-3.88,6.92-40.79,22.8,3.88"/>
  <path class="cls-2" d="m236.68,345.35l-.83,5.33c-3.44,2.24-7.66,3.38-11.72,3.77-12.92,1.25-23.49-5.77-24.69-18.17-1.54-15.8,8.65-24.05,21.81-25.34,3.99-.38,8.93.18,12.63,1.77-.35,2.1-.5,4.2-.79,6.37l-.84.07c-2.55-3.04-6.64-4.97-10.57-4.58-10.03.96-13.15,10.97-12.29,19.88,1.01,10.33,6.79,17.1,16.09,16.2,3.75-.36,7.92-2.72,10.39-5.59l.81.28"/>
  <path class="cls-2" d="m271.1,341.09c-1.45.46-2.94.84-4.35,1.39-1.42.55-2.76,1.28-4.12,1.96l-13.65-34.79c-4.01,1.58-7.41,3.37-10.2,4.92-.19-.84-.34-1.7-.67-2.55-.31-.79-.78-1.51-1.22-2.26l29.11-11.43c.19.84.34,1.69.65,2.48.33.86.81,1.58,1.23,2.32-3.49.92-6.98,1.83-10.43,3.18l13.64,34.79"/>
  <path class="cls-2" d="m290.11,281.45c.39.77.77,1.63,1.26,2.31.48.7,1.16,1.34,1.74,1.97-3.3,1.74-6.96,3.73-11.94,7.4l7.52,10.67,5.16-3.65c2.22-1.57,4.13-3.2,5.79-4.75.38.77.77,1.62,1.26,2.31.49.7,1.15,1.34,1.75,1.97-2.02,1.04-4.19,2.27-6.42,3.85l-5.16,3.65,8.89,12.61c5.02-3.62,8.21-6.25,10.97-8.79.4.77.76,1.62,1.25,2.31.49.7,1.17,1.34,1.75,1.97l-18.9,13.34-23.83-33.83,18.91-13.34"/>
  <path class="cls-2" d="m331.45,293.23l3.21-4.05c5.19-6.57,5.86-14.17-5.29-23-8.96-7.08-15.83-5.63-21.14,1.09l-3.69,4.68,26.9,21.28m-22.44-32.61c8.44-9.9,18.85-8.48,26.67-2.3,10.75,8.51,11.16,21.14,3.43,30.91l-10.53,13.34-32.44-25.66,12.88-16.29Z"/>
</svg>